<!DOCTYPE svg PUBLIC "-//W3C//DTD SVG 1.1//EN" "http://www.w3.org/Graphics/SVG/1.1/DTD/svg11.dtd">
<!-- Uploaded to: SVG Repo, www.svgrepo.com, Transformed by: SVG Repo Mixer Tools -->
<svg width="256px" height="256px" viewBox="-2.4 -2.4 28.80 28.80" id="Layer_1" data-name="Layer 1" xmlns="http://www.w3.org/2000/svg" xmlns:xlink="http://www.w3.org/1999/xlink" fill="#4feef6" stroke="#4feef6" stroke-width="0.00024000000000000003" transform="rotate(180)">
<g id="SVGRepo_bgCarrier" stroke-width="0">
<path transform="translate(-2.4, -2.4), scale(1.7999999999999998)" fill="#342b49" d="M9.166.33a2.25 2.25 0 00-2.332 0l-5.25 3.182A2.25 2.25 0 00.5 5.436v5.128a2.25 2.25 0 001.084 1.924l5.25 3.182a2.25 2.25 0 002.332 0l5.25-3.182a2.25 2.25 0 001.084-1.924V5.436a2.25 2.25 0 00-1.084-1.924L9.166.33z" strokewidth="0"/>
</g>
<g id="SVGRepo_tracerCarrier" stroke-linecap="round" stroke-linejoin="round" stroke="#CCCCCC" stroke-width="0.048"/>
<g id="SVGRepo_iconCarrier"> <defs> <style>.cls-1{fill:none;}.cls-2{clip-path:url(#clip-path);}</style> <clipPath id="clip-path"> <rect class="cls-1" y="0.02" width="24" height="24"/> </clipPath> </defs> <title>cube-skeleton</title> <g class="cls-2"> <path d="M12,12.16a.69.69,0,0,1-.37-.1L3.39,7.36A.76.76,0,0,1,3,6.71a.78.78,0,0,1,.38-.66l8.24-4.7a.75.75,0,0,1,.74,0l8.24,4.7a.78.78,0,0,1,.38.66.76.76,0,0,1-.38.65l-8.24,4.7A.69.69,0,0,1,12,12.16ZM5.28,6.71,12,10.55l6.72-3.84L12,2.86Z"/> <path d="M12,22.75a.69.69,0,0,1-.37-.1L3.39,18A.78.78,0,0,1,3,17.29V6.71a.75.75,0,1,1,1.5,0V16.86L12,21.14l7.49-4.28V6.71a.75.75,0,0,1,1.5,0V17.29a.78.78,0,0,1-.38.66l-8.24,4.7A.69.69,0,0,1,12,22.75Z"/> <path d="M12,22.75a.76.76,0,0,1-.75-.75V12.85L4.43,17.62a.75.75,0,0,1-.86-1.24l8-5.58a.75.75,0,0,1,1.18.61V22A.76.76,0,0,1,12,22.75Z"/> <path d="M20,17.75a.75.75,0,0,1-.43-.13l-8-5.59a.75.75,0,0,1-.18-1,.74.74,0,0,1,1-.18l8,5.58a.75.75,0,0,1,.18,1.05A.72.72,0,0,1,20,17.75Z"/> </g> </g>
</svg>